<?xml version="1.0" encoding="UTF-8"?>
<svg xmlns="http://www.w3.org/2000/svg" xmlns:xlink="http://www.w3.org/1999/xlink" width="32px" height="32px" viewBox="0 0 32 32" version="1.1">
<defs>
<linearGradient id="linear0" gradientUnits="userSpaceOnUse" x1="63.992199" y1="256.019012" x2="447.992004" y2="256.019012" gradientTransform="matrix(0.0625,0,0,0.0625,0,0)">
<stop offset="0" style="stop-color:rgb(75.294118%,1.568627%,100%);stop-opacity:1;"/>
<stop offset="1" style="stop-color:rgb(43.529412%,56.078431%,100%);stop-opacity:1;"/>
</linearGradient>
</defs>
<g id="surface1">
<rect x="0" y="0" width="32" height="32" style="fill:rgb(0%,0%,0%);fill-opacity:1;stroke:none;"/>
<path style=" stroke:none;fill-rule:nonzero;fill:url(#linear0);" d="M 26.347656 12.007812 C 26.039062 11.695312 25.703125 11.429688 25.339844 11.203125 C 24.945312 10.957031 24.527344 10.761719 24.085938 10.621094 C 23.535156 10.445312 22.953125 10.355469 22.363281 10.355469 C 20.855469 10.355469 19.441406 10.941406 18.375 12.007812 L 16.570312 13.816406 L 18.183594 15.429688 L 19.988281 13.617188 C 20.625 12.984375 21.46875 12.632812 22.367188 12.632812 C 23.265625 12.632812 24.105469 12.988281 24.742188 13.617188 C 25.304688 14.179688 25.621094 14.886719 25.703125 15.621094 C 25.710938 15.746094 25.714844 15.871094 25.714844 16 C 25.714844 16.125 25.710938 16.25 25.703125 16.375 C 25.621094 17.105469 25.304688 17.816406 24.742188 18.375 C 24.109375 19.011719 23.265625 19.359375 22.367188 19.359375 C 21.46875 19.359375 20.625 19.007812 19.988281 18.375 L 17.992188 16.375 L 17.613281 16 L 13.625 12.007812 C 12.558594 10.941406 11.144531 10.355469 9.636719 10.355469 C 9.039062 10.355469 8.460938 10.445312 7.910156 10.621094 C 7.46875 10.765625 7.050781 10.957031 6.65625 11.207031 C 6.296875 11.429688 5.957031 11.703125 5.648438 12.007812 C 3.449219 14.210938 3.449219 17.792969 5.648438 19.996094 C 5.957031 20.300781 6.292969 20.574219 6.65625 20.796875 C 7.050781 21.046875 7.46875 21.238281 7.910156 21.378906 C 8.460938 21.554688 9.042969 21.644531 9.632812 21.644531 C 11.140625 21.644531 12.558594 21.058594 13.621094 19.992188 L 13.714844 19.898438 L 14.621094 20.804688 L 14.621094 17.375 L 11.195312 17.375 L 12.105469 18.285156 L 12.011719 18.378906 C 11.375 19.015625 10.53125 19.363281 9.632812 19.363281 C 8.734375 19.363281 7.890625 19.011719 7.253906 18.378906 C 6.699219 17.820312 6.375 17.109375 6.292969 16.378906 C 6.289062 16.253906 6.285156 16.125 6.285156 16 C 6.285156 15.875 6.289062 15.746094 6.292969 15.621094 C 6.375 14.886719 6.695312 14.179688 7.253906 13.617188 C 7.890625 12.984375 8.734375 12.632812 9.632812 12.632812 C 10.53125 12.632812 11.375 12.988281 12.011719 13.617188 L 14.007812 15.621094 L 14.386719 16 L 18.375 19.992188 C 19.4375 21.058594 20.855469 21.644531 22.359375 21.644531 C 22.957031 21.644531 23.535156 21.554688 24.085938 21.378906 C 24.527344 21.238281 24.945312 21.042969 25.339844 20.796875 C 25.699219 20.570312 26.039062 20.300781 26.347656 19.992188 C 28.550781 17.789062 28.550781 14.210938 26.347656 12.007812 Z M 26.347656 12.007812 "/>
</g>
</svg>
