<svg width="512" height="512" viewBox="0 0 512 512" fill="none" xmlns="http://www.w3.org/2000/svg">
<rect width="512" height="512" fill="white"/>
<rect width="512" height="512" fill="url(#paint0_linear_27_8)"/>
<path d="M421.584 192.106C416.615 187.13 411.27 182.874 405.457 179.275C399.144 175.3 392.425 172.201 385.362 169.948C376.549 167.1 367.267 165.66 357.797 165.66C333.702 165.66 311.044 175.049 294.011 192.106L265.102 221.057L290.917 246.846L319.826 217.895C329.983 207.724 343.484 202.153 357.86 202.153C372.236 202.153 385.706 207.786 395.894 217.895C404.864 226.878 409.958 238.207 411.27 249.913C411.364 251.916 411.427 253.919 411.427 255.984C411.427 257.987 411.364 259.99 411.27 261.993C409.958 273.699 404.864 285.06 395.894 294.011C385.737 304.182 372.236 309.753 357.86 309.753C343.484 309.753 330.014 304.12 319.826 294.011L287.854 261.993L281.791 256.016L217.973 192.138C200.941 175.081 178.283 165.691 154.187 165.691C144.655 165.691 135.404 167.131 126.591 169.948C119.528 172.233 112.809 175.331 106.496 179.306C100.745 182.905 95.3385 187.224 90.3693 192.138C55.2102 227.347 55.2102 284.715 90.3693 319.925C95.3385 324.839 100.683 329.158 106.496 332.757C112.809 336.732 119.528 339.83 126.591 342.084C135.404 344.9 144.686 346.34 154.156 346.34C178.251 346.34 200.91 336.951 217.942 319.894L219.442 318.391L233.912 332.882V303.869V292.947V277.986H218.974H208.191H179.095L193.659 292.571L192.159 294.073C182.002 304.245 168.501 309.816 154.125 309.816C139.748 309.816 126.279 304.182 116.09 294.073C107.183 285.154 102.027 273.761 100.714 262.056C100.62 260.053 100.558 257.987 100.558 255.984C100.558 253.981 100.62 251.916 100.714 249.913C102.027 238.207 107.121 226.847 116.09 217.895C126.247 207.724 139.748 202.153 154.125 202.153C168.501 202.153 181.971 207.786 192.159 217.895L224.13 249.913L230.193 255.984L293.98 319.862C311.012 336.919 333.67 346.309 357.766 346.309C367.298 346.309 376.549 344.869 385.362 342.052C392.425 339.799 399.144 336.669 405.457 332.726C411.208 329.126 416.615 324.807 421.584 319.894C456.805 284.653 456.805 227.379 421.584 192.106Z" fill="url(#paint1_linear_27_8)"/>
<defs>
<linearGradient id="paint0_linear_27_8" x1="0" y1="0" x2="512" y2="512" gradientUnits="userSpaceOnUse">
<stop stop-color="#728AFF" stop-opacity="0.05"/>
<stop offset="0.500084" stop-color="#BF06FF" stop-opacity="0.05"/>
<stop offset="1" stop-color="#718DFF" stop-opacity="0.05"/>
</linearGradient>
<linearGradient id="paint1_linear_27_8" x1="63.9922" y1="256.019" x2="447.992" y2="256.019" gradientUnits="userSpaceOnUse">
<stop stop-color="#C004FF"/>
<stop offset="1" stop-color="#6F8FFF"/>
</linearGradient>
</defs>
</svg>
