<svg width="64" height="64" viewBox="0 0 64 64" fill="none" xmlns="http://www.w3.org/2000/svg">
<rect width="64" height="64" rx="32" fill="#6E54FF"/>
<path d="M20.4649 28.3414L23.9667 29.8212C24.3857 28.9841 24.8197 28.177 25.2687 27.3997C25.7176 26.6225 26.2115 25.8452 26.7502 25.068L24.2361 24.5747L20.4649 28.3414ZM26.84 32.0633L31.958 37.1304C33.2151 36.6521 34.5619 35.9197 35.9986 34.9332C37.4352 33.9466 38.7821 32.8256 40.0391 31.57C42.1342 29.4774 43.7729 27.1531 44.9551 24.5971C46.1374 22.0411 46.6537 19.687 46.504 17.5345C44.3491 17.3851 41.9846 17.9008 39.4106 19.0816C36.8366 20.2624 34.5021 21.8991 32.407 23.9918C31.1499 25.2473 30.0275 26.5926 29.0398 28.0275C28.0522 29.4625 27.3189 30.8077 26.84 32.0633ZM34.8313 29.1486C34.1429 28.461 33.7987 27.6165 33.7987 26.615C33.7987 25.6135 34.1429 24.769 34.8313 24.0814C35.5197 23.3939 36.3727 23.0501 37.3903 23.0501C38.4079 23.0501 39.261 23.3939 39.9493 24.0814C40.6377 24.769 40.9819 25.6135 40.9819 26.615C40.9819 27.6165 40.6377 28.461 39.9493 29.1486C39.261 29.8361 38.4079 30.1799 37.3903 30.1799C36.3727 30.1799 35.5197 29.8361 34.8313 29.1486ZM35.6843 43.5428L39.4555 39.7761L38.9617 37.2649C38.1835 37.803 37.4053 38.2888 36.6271 38.7223C35.8489 39.1558 35.0408 39.5818 34.2028 40.0003L35.6843 43.5428ZM49.7365 14.2611C50.3051 17.8783 49.9535 21.3984 48.6814 24.8213C47.4094 28.2443 45.217 31.5102 42.1043 34.6193L43.0022 39.0586C43.1219 39.6565 43.092 40.2394 42.9124 40.8074C42.7328 41.3754 42.4335 41.8687 42.0145 42.2872L34.4721 49.8206L30.701 40.9868L23.0239 33.3189L14.1796 29.5521L21.6771 22.0187C22.0961 21.6002 22.5974 21.3013 23.181 21.1219C23.7647 20.9425 24.3558 20.9126 24.9544 21.0322L29.399 21.929C32.5117 18.82 35.7741 16.6228 39.1861 15.3373C42.5982 14.0518 46.1149 13.6931 49.7365 14.2611ZM17.3671 39.0138C18.4147 37.9675 19.6942 37.4368 21.2057 37.4219C22.7171 37.4069 23.9966 37.9226 25.0442 38.9689C26.0917 40.0152 26.608 41.2932 26.5931 42.8029C26.5781 44.3126 26.0468 45.5906 24.9993 46.6369C24.251 47.3842 23.0015 48.027 21.2506 48.5651C19.4996 49.1032 17.0828 49.5815 14 50C14.419 46.9209 14.8979 44.5069 15.4366 42.758C15.9754 41.0092 16.6189 39.7611 17.3671 39.0138ZM19.9261 41.5249C19.6268 41.8238 19.3275 42.3694 19.0282 43.1616C18.7289 43.9538 18.5194 44.7535 18.3997 45.5607C19.2078 45.4411 20.0085 45.2393 20.8016 44.9553C21.5947 44.6713 22.141 44.3798 22.4403 44.0809C22.7994 43.7222 22.994 43.2887 23.0239 42.7805C23.0538 42.2723 22.8892 41.8388 22.5301 41.4801C22.1709 41.1213 21.7369 40.9494 21.2281 40.9644C20.7193 40.9793 20.2853 41.1662 19.9261 41.5249Z" fill="white"/>
</svg>
