<svg width="64" height="64" viewBox="0 0 64 64" fill="none" xmlns="http://www.w3.org/2000/svg">
<g clip-path="url(#clip0_184_370)">
<circle cx="32" cy="32" r="23.4667" stroke="#836EF9" stroke-width="17.0667"/>
<path d="M31.9013 55.1218C26.9774 55.101 8.85716 36.8254 8.87824 31.9014C8.89924 26.9772 27.1746 8.85726 32.0983 8.87837C37.0225 8.89916 55.1425 27.1745 55.1217 32.0986C55.1006 37.0226 36.8251 55.1428 31.9013 55.1218Z" fill="white"/>
<path d="M40 36.2425C40 32.0597 37.4925 30.6256 32.4776 30.0277C28.8958 29.55 28.1792 28.5937 28.1792 26.9212C28.1792 25.2479 29.3731 24.1724 31.7615 24.1724C33.9105 24.1724 35.1044 24.8892 35.7016 26.6819C35.8208 27.0405 36.1789 27.2796 36.5372 27.2796H38.448C38.9255 27.2796 39.2836 26.9212 39.2836 26.4426V26.3233C38.8063 23.6945 36.6571 21.6627 33.9104 21.4234V18.5553C33.9104 18.0776 33.5524 17.7192 32.9552 17.5999H31.164C30.6867 17.5999 30.3287 17.9583 30.2094 18.5553V21.3041C26.6274 21.7821 24.3583 24.1722 24.3583 27.1596C24.3583 31.1034 26.7466 32.6574 31.7615 33.2544C35.1044 33.8521 36.1789 34.5692 36.1789 36.4809C36.1789 38.3936 34.5079 39.7076 32.2388 39.7076C29.1347 39.7076 28.0602 38.3936 27.7019 36.6009C27.582 36.1225 27.2239 35.8839 26.8656 35.8839H24.8363C24.3583 35.8839 24 36.2425 24 36.7202V36.8395C24.4782 39.8276 26.3883 41.9787 30.3287 42.5757V45.4438C30.3287 45.9222 30.6867 46.2808 31.2839 46.3999H33.0751C33.5524 46.3999 33.9104 46.0415 34.0297 45.4438V42.5757C37.6117 41.9787 40 39.469 40 36.2425Z" fill="#836EF9"/>
</g>
<defs>
<clipPath id="clip0_184_370">
<rect width="64" height="64" fill="white"/>
</clipPath>
</defs>
</svg>
